<?xml version="1.0" encoding="utf-8"?>
<!-- Generator: Adobe Illustrator 19.0.0, SVG Export Plug-In . SVG Version: 6.00 Build 0)  -->
<svg version="1.0" id="Layer_1" xmlns="http://www.w3.org/2000/svg" xmlns:xlink="http://www.w3.org/1999/xlink" x="0px" y="0px"
	 viewBox="0 0 529.5 529.5" style="enable-background:new 0 0 529.5 529.5;" xml:space="preserve">
<style type="text/css">
	.st0{fill:#8E8E93;}
	.st1{fill:none;}
</style>
<g id="XMLID_20_">
	<path id="XMLID_22_" class="st0" d="M264.7,529.5c-70.7,0-137.2-27.5-187.2-77.5S0,335.5,0,264.7C0,194,27.5,127.5,77.5,77.5
		S194,0,264.7,0c70.7,0,137.2,27.5,187.2,77.5s77.5,116.5,77.5,187.2c0,70.7-27.5,137.2-77.5,187.2S335.5,529.5,264.7,529.5z
		 M264.7,14c-67,0-129.9,26.1-177.3,73.4S14,197.8,14,264.7S40.1,394.7,87.4,442c11.4,11.4,23.7,21.6,36.8,30.5
		c5.6,3.8,11.4,7.4,17.3,10.7c37.2,21,79.3,32.2,123.2,32.2c43.8,0,86-11.2,123.1-32.2c6-3.4,11.8-7,17.5-10.9
		c13-8.9,25.3-19,36.7-30.4c47.4-47.4,73.4-110.3,73.4-177.3S489.4,134.8,442,87.4C394.7,40.1,331.7,14,264.7,14z"/>
</g>
<path id="XMLID_13_" class="st1" d="M291.7,146.3h-54.5c-2.3,0-4.2,1.9-4.2,4.2c0,2.3,1.9,4.2,4.2,4.2h54.5c2.3,0,4.2-1.9,4.2-4.2
	C295.9,148.2,294,146.3,291.7,146.3z"/>
<circle id="XMLID_14_" class="st1" cx="263.9" cy="132.8" r="6"/>
<path id="XMLID_28_" class="st0" d="M373.9,105.6H155.7c-17.3,0-31.4,14.1-31.4,31.4v338.4c5.6,3.8,11.4,7.4,17.3,10.8V183.8
	c0-3.3,2.7-6,6-6h234.3c3.3,0,6,2.7,6,6v301.5c6-3.4,11.8-7,17.5-10.9V137C405.3,119.8,391.2,105.6,373.9,105.6z M263.9,126.8
	c3.3,0,6,2.7,6,6s-2.7,6-6,6s-6-2.7-6-6S260.6,126.8,263.9,126.8z M291.7,154.8h-54.5c-2.3,0-4.2-1.9-4.2-4.2c0-2.3,1.9-4.2,4.2-4.2
	h54.5c2.3,0,4.2,1.9,4.2,4.2C295.9,152.9,294,154.8,291.7,154.8z"/>
</svg>
